<svg width="15" height="15" viewBox="0 0 15 15" fill="none" xmlns="http://www.w3.org/2000/svg">
<rect x="0.35" y="0.35" width="14.3" height="14.3" rx="0.65" stroke="white" stroke-width="0.7"/>
<path fill-rule="evenodd" clip-rule="evenodd" d="M5.625 2.8125H0.625V5.3125H5.625V2.8125ZM0 2.1875V5.9375H6.25V2.1875H0Z" fill="white"/>
<path fill-rule="evenodd" clip-rule="evenodd" d="M5.625 5.9375H0.625V8.75H5.625V5.9375ZM0 5.3125V9.375H6.25V5.3125H0Z" fill="white"/>
<path fill-rule="evenodd" clip-rule="evenodd" d="M5.625 9.375H0.625V11.875H5.625V9.375ZM0 8.75V12.5H6.25V8.75H0Z" fill="white"/>
<path fill-rule="evenodd" clip-rule="evenodd" d="M9.37601 9.375H14.376V11.875H9.37601V9.375ZM15.001 8.75V12.5H8.75101V8.75H15.001Z" fill="white"/>
<path fill-rule="evenodd" clip-rule="evenodd" d="M14.3744 6.25H9.68689C9.5143 6.25 9.37439 6.38991 9.37439 6.5625V8.75H14.3744V6.25ZM9.68689 5.625C9.16912 5.625 8.74939 6.04473 8.74939 6.5625V9.375H14.9994V5.625H9.68689Z" fill="white"/>
<path fill-rule="evenodd" clip-rule="evenodd" d="M14.0625 0.625H0.9375C0.764911 0.625 0.625 0.764911 0.625 0.9375V2.1875H14.375V0.9375C14.375 0.764911 14.2351 0.625 14.0625 0.625ZM0.9375 0C0.419733 0 0 0.419733 0 0.9375V2.8125H15V0.9375C15 0.419733 14.5803 0 14.0625 0H0.9375Z" fill="white"/>
<path d="M7.18802 0.625H7.81302V2.8125H7.18802V0.625Z" fill="white"/>
<path fill-rule="evenodd" clip-rule="evenodd" d="M14.375 12.5H0.625V13.75C0.625 13.9226 0.764911 14.0625 0.9375 14.0625H14.0625C14.2351 14.0625 14.375 13.9226 14.375 13.75V12.5ZM0 11.875V13.75C0 14.2678 0.419733 14.6875 0.9375 14.6875H14.0625C14.5803 14.6875 15 14.2678 15 13.75V11.875H0Z" fill="white"/>
<path d="M7.18802 12.5H7.81302V14.6875H7.18802V12.5Z" fill="white"/>
</svg>
