<svg width="131" height="50" viewBox="0 0 131 50" fill="none" xmlns="http://www.w3.org/2000/svg">
<rect width="131" height="50" rx="4" fill="black"/>
<path d="M56.347 25.4479C55.003 25.4479 53.771 26.1199 53.099 27.2399V25.5599H51.083V38.9999H53.211V33.9599C53.883 35.0799 55.115 35.7519 56.347 35.7519C58.923 35.7519 60.603 33.7359 60.603 30.5999C60.603 27.4639 58.923 25.4479 56.347 25.4479ZM55.787 34.0719C54.219 34.0719 53.099 32.7279 53.099 30.5999C53.099 28.5839 54.219 27.2399 55.787 27.2399C57.355 27.2399 58.475 28.5839 58.475 30.5999C58.475 32.7279 57.467 34.0719 55.787 34.0719Z" fill="white"/>
<path d="M42.4599 21.752L37.4199 35.64H39.6599L40.8919 31.832H46.1559L47.3879 35.64H49.6279L44.6999 21.752H42.4599ZM41.4519 30.152L43.4679 23.992H43.5799L45.5959 30.152H41.4519Z" fill="white"/>
<path d="M29.8034 29.144C29.4674 30.376 28.9074 31.496 28.1234 32.616C27.1154 34.072 26.1074 35.64 24.4274 35.64C22.8594 35.64 22.2994 34.632 20.3954 34.632C18.4914 34.632 17.9314 35.528 16.3634 35.64C14.7954 35.752 13.5634 34.072 12.5554 32.504C10.5394 29.48 8.85943 23.992 10.9874 20.184C12.1074 18.504 14.0114 17.272 16.0274 17.272C17.5954 17.272 19.0514 18.392 20.0594 18.392C21.0674 18.392 22.8594 17.048 24.7634 17.272C26.5554 17.272 28.2354 18.28 29.2434 19.736C27.5634 20.744 26.6674 22.424 26.5554 24.328C26.5554 26.456 27.8994 28.36 29.8034 29.144Z" fill="white"/>
<path d="M51.4201 17.9439H50.4121V12.9039H53.7721V13.7999H51.4201V17.9439Z" fill="white"/>
<path d="M61.4995 19.8481C61.3875 19.8481 61.1635 19.8481 61.0515 19.8481V18.9521C61.1635 18.9521 61.2755 18.9521 61.3875 18.9521C61.8355 18.9521 62.2835 18.7281 62.2835 18.2801L62.3955 18.0561L60.6035 13.0161H61.7235L62.9555 17.0481H63.0675L64.2995 13.0161H65.3075L63.4035 18.2801C63.0675 19.4001 62.6195 19.8481 61.4995 19.8481Z" fill="white"/>
<path d="M69.3391 16.4877C69.3391 16.0397 69.0031 15.8157 68.2191 15.8157H67.4351V15.0317H68.2191C68.7791 15.0317 69.1151 14.8077 69.1151 14.3597C69.1151 14.0237 68.7791 13.6877 68.2191 13.6877C67.6591 13.6877 67.2111 13.9117 67.2111 14.3597H66.2031C66.3151 13.4637 67.2111 12.7917 68.2191 12.9037C69.4511 12.9037 70.1231 13.4637 70.1231 14.2477C70.1231 14.6957 69.7871 15.1437 69.3391 15.2557V15.3677C69.8991 15.4797 70.3471 15.9277 70.3471 16.4877C70.3471 17.4957 69.5631 18.0557 68.3311 18.0557C67.2111 18.0557 66.3151 17.4957 66.2031 16.4877H67.2111C67.3231 16.9357 67.7711 17.1597 68.3311 17.1597C68.8911 17.2717 69.3391 16.9357 69.3391 16.4877Z" fill="white"/>
<path d="M84.684 18.0557C85.692 18.1678 86.588 17.4958 86.924 16.5997H86.028C85.804 17.0477 85.356 17.2717 84.796 17.2717H84.684C83.9 17.1597 83.452 16.5997 83.452 15.8157H87.036V15.3677C87.036 13.7997 86.14 12.7917 84.796 12.7917C84.684 12.7917 84.572 12.7917 84.46 12.7917C83.228 13.0157 82.332 14.1357 82.444 15.3677C82.444 15.4797 82.444 15.5917 82.444 15.7037C82.332 17.1597 83.452 18.1678 84.684 18.0557ZM83.34 14.9197C83.34 14.2477 83.9 13.6877 84.684 13.6877H84.796C85.468 13.6877 85.916 14.3597 85.916 15.0317L83.34 14.9197Z" fill="white"/>
<path d="M92.1875 25.56H94.0915V27.24H92.1875V32.84C92.1875 33.736 92.5235 34.072 93.4195 34.072C93.6435 34.072 93.8675 34.072 94.0915 34.072V35.752C93.7555 35.864 93.3075 35.864 92.9715 35.864C90.9555 35.864 90.0595 35.08 90.0595 33.064V27.24H88.6035V25.56H90.0595V23.208H92.1875V25.56Z" fill="white"/>
<path d="M75.0514 12.9039H76.0594V17.9439H75.0514V14.4719L72.6994 17.9439H71.6914V12.9039H72.6994V16.3759H72.8114L75.0514 12.9039Z" fill="white"/>
<path d="M87.7084 31.72C87.7084 34.296 85.5804 35.976 82.3324 35.976C79.3084 35.976 77.1804 34.408 77.0684 31.832H79.1964C79.3084 33.176 80.6524 34.072 82.5564 34.072C84.3484 34.072 85.5804 33.176 85.5804 31.944C85.5804 30.824 84.7964 30.264 83.0044 29.816L81.2124 29.368C78.6364 28.808 77.5164 27.576 77.5164 25.672C77.5164 23.32 79.6444 21.64 82.5564 21.64C85.4684 21.64 87.4844 23.32 87.5964 25.672H85.4684C85.3564 24.328 84.2364 23.432 82.5564 23.432C80.8764 23.432 79.7564 24.328 79.7564 25.56C79.7564 26.568 80.5404 27.128 82.2204 27.576L83.7884 27.912C86.4764 28.472 87.7084 29.704 87.7084 31.72Z" fill="white"/>
<path d="M100.028 25.4479C97.1159 25.4479 95.2119 27.4639 95.2119 30.5999C95.2119 33.8479 97.1159 35.7519 100.028 35.7519C102.94 35.7519 104.844 33.7359 104.844 30.5999C104.844 27.4639 102.94 25.4479 100.028 25.4479ZM100.028 34.0719C98.3479 34.0719 97.3399 32.7279 97.3399 30.5999C97.3399 28.4719 98.3479 27.1279 100.028 27.1279C101.708 27.1279 102.716 28.4719 102.716 30.5999C102.716 32.8399 101.708 34.0719 100.028 34.0719Z" fill="white"/>
<path d="M67.5472 25.4479C66.2032 25.4479 64.9712 26.1199 64.2992 27.2399V25.5599H62.2832V38.9999H64.4112V33.9599C65.0832 35.0799 66.3152 35.7519 67.5472 35.7519C70.1232 35.7519 71.8032 33.7359 71.8032 30.5999C71.8032 27.4639 70.1232 25.4479 67.5472 25.4479ZM66.9872 34.0719C65.4192 34.0719 64.2992 32.7279 64.2992 30.5999C64.2992 28.5839 65.4192 27.2399 66.9872 27.2399C68.6672 27.2399 69.6752 28.5839 69.6752 30.5999C69.6752 32.7279 68.5552 34.0719 66.9872 34.0719Z" fill="white"/>
<path d="M42.3471 16.152C42.3471 15.48 41.7871 15.032 40.8911 15.032H39.9951V14.136H40.8911C41.5631 14.248 42.1231 13.8 42.1231 13.128C42.1231 13.128 42.1231 13.128 42.1231 13.016C42.1231 12.456 41.6751 12.008 40.8911 12.008C40.2191 11.896 39.6591 12.344 39.5471 13.016H38.5391C38.6511 11.896 39.5471 11 40.7791 11H40.8911C42.2351 11 43.1311 11.672 43.1311 12.792C43.1311 13.576 42.5711 14.136 41.8991 14.36V14.584C42.7951 14.584 43.4671 15.256 43.4671 16.152C43.3551 17.384 42.2351 18.28 41.0031 18.168C39.7711 18.28 38.6511 17.496 38.5391 16.264V16.152H39.5471C39.5471 16.824 40.2191 17.16 41.1151 17.16C41.7871 17.272 42.3471 16.712 42.3471 16.152Z" fill="white"/>
<path d="M111.004 25.4479C111.228 25.4479 111.452 25.4479 111.676 25.5599V27.4639C111.34 27.3519 111.004 27.3519 110.78 27.3519C109.66 27.3519 108.652 28.2479 108.652 29.3679C108.652 29.4799 108.652 29.5919 108.652 29.7039V35.7519H106.636V25.5599H108.652V27.2399C108.876 26.1199 109.884 25.4479 111.004 25.4479Z" fill="white"/>
<path d="M78.9713 13.7999H77.4033V12.9039H81.5473V13.7999H79.9793V17.9439H78.9713V13.7999Z" fill="white"/>
<path d="M94.0917 15.3679C94.5397 15.1439 94.9877 14.6959 94.9877 14.2479C94.9877 13.4639 94.4277 12.9039 93.4197 12.9039H91.1797V17.9439H93.4197C94.5397 17.9439 95.2117 17.3839 95.2117 16.4879C95.2117 15.9279 94.6517 15.3679 94.0917 15.3679ZM92.0757 13.6879H93.1957C93.7557 13.6879 93.9797 13.9119 93.9797 14.3599C93.9797 14.8079 93.6437 15.0319 93.0837 15.0319H92.0757V13.6879ZM93.3077 17.2719H92.0757V15.7039H93.0837C93.7557 15.7039 94.0917 15.9279 94.0917 16.4879C94.2037 16.9359 93.8677 17.2719 93.3077 17.2719Z" fill="white"/>
<path d="M121.42 31.1599V30.4879C121.42 27.4639 119.628 25.4479 116.828 25.4479C114.028 25.4479 112.124 27.4639 112.124 30.7119C112.124 33.8479 113.916 35.8639 116.94 35.8639C119.18 35.8639 120.972 34.6319 121.308 32.7279H119.292C118.956 33.6239 117.948 34.1839 116.94 34.1839C116.828 34.1839 116.716 34.1839 116.604 34.1839C115.148 34.0719 114.028 32.7279 114.252 31.3839V31.2719H121.42V31.1599ZM114.364 29.7039C114.364 28.2479 115.484 27.1279 116.94 27.1279H117.164C118.508 27.2399 119.516 28.3599 119.404 29.7039H114.364Z" fill="white"/>
<path d="M46.4919 15.0319C45.2599 15.1439 44.5879 15.7039 44.5879 16.5999V16.7119C44.6999 17.6079 45.3719 18.1679 46.2679 18.0559C46.8279 18.0559 47.4999 17.8319 47.7239 17.2719H47.8359V17.9439H48.8439V14.5839C48.8439 13.4639 48.1719 12.9039 46.8279 12.9039C45.7079 12.9039 44.8119 13.4639 44.8119 14.3599H45.7079C45.8199 14.0239 46.2679 13.7999 46.7159 13.7999C47.3879 13.7999 47.7239 14.1359 47.7239 14.5839V15.0319H46.4919ZM47.8359 16.1519C47.7239 16.8239 47.1639 17.2719 46.4919 17.2719C45.9319 17.2719 45.5959 17.0479 45.5959 16.5999C45.5959 16.1519 45.9319 15.9279 46.6039 15.8159L47.8359 15.7039V16.1519Z" fill="white"/>
<path d="M56.1242 17.2719C56.5722 17.8319 57.1322 18.1679 57.8042 18.1679C59.0362 18.1679 59.9322 17.1599 59.9322 15.5919C59.9322 14.0239 59.1482 13.0159 57.8042 13.0159C57.1322 13.0159 56.5722 13.3519 56.2362 13.9119H56.1242V12.9039H55.1162V19.6239H56.1242V17.2719ZM57.4682 13.7999C58.3642 13.7999 58.8122 14.4719 58.8122 15.4799C58.8122 16.5999 58.2522 17.1599 57.4682 17.1599C56.5722 17.1599 56.1242 16.4879 56.1242 15.4799C56.1242 14.4719 56.5722 13.7999 57.4682 13.7999Z" fill="white"/>
<path d="M23.5316 15.2559C24.4276 14.1359 24.8756 12.7919 24.7636 11.3359C23.4196 11.4479 22.0756 12.1199 21.1796 13.2399C20.2836 14.2479 19.8356 15.5919 19.9476 16.9359C21.2916 16.9359 22.6356 16.2639 23.5316 15.2559Z" fill="white"/>
</svg>
