<svg width="50" height="50" viewBox="0 0 50 50" fill="none" xmlns="http://www.w3.org/2000/svg">
<circle cx="25" cy="25" r="25" fill="white" fill-opacity="0.08"/>
<g opacity="0.3" clip-path="url(#clip0_1_875)">
<path d="M22.9829 19.6798C22.9829 20.1586 22.9829 22.2957 22.9829 22.2957H21.0664V25.4945H22.9829V35H26.9198V25.4947H29.5617C29.5617 25.4947 29.8091 23.961 29.929 22.2839C29.5852 22.2839 26.9347 22.2839 26.9347 22.2839C26.9347 22.2839 26.9347 20.423 26.9347 20.0968C26.9347 19.7699 27.364 19.3302 27.7882 19.3302C28.2117 19.3302 29.1054 19.3302 29.9332 19.3302C29.9332 18.8947 29.9332 17.3899 29.9332 16.0001C28.8281 16.0001 27.5709 16.0001 27.0168 16.0001C22.8856 15.9999 22.9829 19.2018 22.9829 19.6798Z" fill="white"/>
</g>
<defs>
<clipPath id="clip0_1_875">
<rect width="19" height="19" fill="white" transform="translate(16 16)"/>
</clipPath>
</defs>
</svg>
