<svg width="33" height="17" viewBox="0 0 33 17" fill="none" xmlns="http://www.w3.org/2000/svg">
<path fill-rule="evenodd" clip-rule="evenodd" d="M32.5195 14.7042V1.81849C32.4316 1.13241 31.8958 0.585933 31.2135 0.479248H1.31874C0.57157 0.596121 0 1.24031 0 2.01776V14.5049C0 15.365 0.699789 16.0622 1.56295 16.0622H30.9694C31.7648 16.0623 32.4214 15.4702 32.5195 14.7042ZM4.49091 3.55567H6.94876V13.0013H4.49091V3.55567ZM11.6215 7.96838L12.1908 3.55567H15.4015V13.0013H13.2555L13.2478 6.62574L12.3882 13.0013H10.8548L9.94877 6.76456L9.94103 13.0013H7.78824V3.55567H10.9748C11.0685 4.12753 11.1667 4.79862 11.2694 5.56878L11.6215 7.96838ZM19.2448 5.25558C19.3419 5.3117 19.4041 5.40028 19.4312 5.5204C19.4583 5.64083 19.4721 5.91446 19.4721 6.34145V10.0033C19.4721 10.6322 19.4312 11.0173 19.3496 11.1589C19.268 11.3008 19.0504 11.3715 18.6972 11.3715V5.17117C18.9649 5.17117 19.1477 5.19931 19.2448 5.25558ZM19.2194 13.0013C19.8081 13.0013 20.2488 12.9694 20.5415 12.9052C20.8341 12.8412 21.0796 12.7285 21.2788 12.5674C21.4776 12.4063 21.617 12.1831 21.697 11.8974C21.777 11.6122 21.8245 11.0459 21.8245 10.1993V6.88205C21.8245 5.98865 21.7895 5.3896 21.735 5.08474C21.6803 4.78004 21.5439 4.50331 21.3254 4.25473C21.1071 4.00614 20.788 3.82759 20.3687 3.71891C19.9495 3.61023 19.2651 3.55566 18.0755 3.55566H16.2417V13.0013H19.2194V13.0013ZM25.0297 3.33924H25.2465V3.55567V6.13169C25.3575 6.04983 25.4737 5.98078 25.5947 5.92497C25.8945 5.78665 26.3082 5.73759 26.5714 5.73759C26.9247 5.73759 27.238 5.79432 27.5026 5.90614C27.7794 6.02281 27.9952 6.19149 28.1443 6.40763C28.2878 6.61616 28.376 6.82687 28.4065 7.03427C28.4338 7.22155 28.447 7.59713 28.447 8.18248V10.8325C28.447 11.4236 28.4069 11.8564 28.3245 12.1556C28.2347 12.4805 28.0258 12.7629 27.7035 12.9952C27.3844 13.2249 27.0031 13.3414 26.5702 13.3414C26.3073 13.3414 25.8935 13.288 25.5928 13.1373C25.4348 13.0581 25.284 12.9552 25.1421 12.8297L25.0848 13.0546L25.0433 13.2178H24.8747H22.662H22.4452V13.0013V3.55567V3.33924H22.662H25.0297ZM25.3031 11.4971C25.3124 11.519 25.3212 11.5397 25.397 11.5397C25.4867 11.5397 25.5672 11.5083 25.591 11.4892C25.6086 11.4332 25.6418 11.2552 25.6418 10.7093V8.28857C25.6418 7.80902 25.6033 7.6471 25.5842 7.59648C25.5623 7.57589 25.4766 7.54001 25.3792 7.54001C25.3303 7.54001 25.31 7.5493 25.305 7.55216L25.3049 7.55217C25.3023 7.55368 25.2997 7.55511 25.2957 7.56495C25.2842 7.5933 25.2465 7.72931 25.2465 8.28886V10.7851C25.2465 11.3221 25.2899 11.4659 25.3031 11.4971Z" fill="#F5C518"/>
</svg>
