<svg width="50" height="50" viewBox="0 0 50 50" fill="none" xmlns="http://www.w3.org/2000/svg">
<circle cx="25" cy="25" r="25" fill="white" fill-opacity="0.08"/>
<path d="M28.3084 17H20.6913C18.1045 17 16 19.1046 16 21.6914V29.3085C16 31.8954 18.1045 33.9999 20.6913 33.9999H28.3084C30.8954 33.9999 32.9999 31.8953 32.9999 29.3085V21.6914C33 19.1046 30.8954 17 28.3084 17ZM31.4917 29.3085C31.4917 31.0637 30.0637 32.4916 28.3085 32.4916H20.6913C18.9362 32.4917 17.5083 31.0637 17.5083 29.3085V21.6914C17.5083 19.9363 18.9362 18.5083 20.6913 18.5083H28.3084C30.0636 18.5083 31.4916 19.9363 31.4916 21.6914V29.3085H31.4917Z" fill="white" fill-opacity="0.3"/>
<path d="M24.5006 21.1197C22.0851 21.1197 20.1201 23.0848 20.1201 25.5002C20.1201 27.9155 22.0851 29.8804 24.5006 29.8804C26.916 29.8804 28.881 27.9155 28.881 25.5002C28.881 23.0848 26.916 21.1197 24.5006 21.1197ZM24.5006 28.372C22.9169 28.372 21.6284 27.0837 21.6284 25.5001C21.6284 23.9163 22.9168 22.6279 24.5006 22.6279C26.0843 22.6279 27.3727 23.9163 27.3727 25.5001C27.3727 27.0837 26.0842 28.372 24.5006 28.372Z" fill="white" fill-opacity="0.3"/>
<path d="M29.0641 19.8408C28.7735 19.8408 28.488 19.9584 28.2828 20.1646C28.0766 20.3697 27.958 20.6553 27.958 20.9469C27.958 21.2376 28.0767 21.5231 28.2828 21.7292C28.4879 21.9343 28.7735 22.053 29.0641 22.053C29.3557 22.053 29.6403 21.9343 29.8464 21.7292C30.0525 21.5231 30.1702 21.2375 30.1702 20.9469C30.1702 20.6553 30.0525 20.3697 29.8464 20.1646C29.6413 19.9584 29.3557 19.8408 29.0641 19.8408Z" fill="white" fill-opacity="0.3"/>
</svg>
