<svg width="50" height="50" viewBox="0 0 50 50" fill="none" xmlns="http://www.w3.org/2000/svg">
<circle cx="25" cy="25" r="25" fill="white" fill-opacity="0.08"/>
<path d="M35.8834 30.3358C35.8567 30.2784 35.8319 30.2308 35.8088 30.1926C35.4271 29.5052 34.6977 28.6614 33.621 27.661L33.5983 27.6381L33.5869 27.6269L33.5754 27.6153H33.5638C33.0751 27.1495 32.7657 26.8363 32.6361 26.6759C32.399 26.3705 32.3459 26.0613 32.4755 25.748C32.567 25.5113 32.9109 25.0114 33.5064 24.2476C33.8196 23.8428 34.0677 23.5184 34.2509 23.274C35.572 21.5176 36.1448 20.3952 35.9691 19.9064L35.9009 19.7922C35.855 19.7234 35.7367 19.6605 35.546 19.6031C35.3548 19.5459 35.1105 19.5364 34.8127 19.5746L31.5138 19.5974C31.4604 19.5784 31.3841 19.5802 31.2847 19.6031C31.1854 19.6261 31.1357 19.6376 31.1357 19.6376L31.0783 19.6663L31.0327 19.7008C30.9945 19.7235 30.9525 19.7636 30.9067 19.8209C30.8611 19.878 30.8229 19.945 30.7924 20.0214C30.4333 20.9454 30.0249 21.8044 29.5666 22.5986C29.2841 23.0721 29.0246 23.4825 28.7876 23.83C28.5509 24.1773 28.3524 24.4332 28.1921 24.5973C28.0317 24.7615 27.8868 24.8931 27.7568 24.9924C27.6269 25.0919 27.5277 25.1339 27.4591 25.1185C27.3903 25.1031 27.3255 25.0879 27.2642 25.0726C27.1573 25.0039 27.0714 24.9103 27.0066 24.792C26.9415 24.6736 26.8977 24.5247 26.8748 24.3452C26.852 24.1656 26.8385 24.0112 26.8347 23.8813C26.8311 23.7516 26.8328 23.5681 26.8405 23.3314C26.8484 23.0946 26.852 22.9344 26.852 22.8504C26.852 22.5601 26.8577 22.2452 26.869 21.9053C26.8806 21.5655 26.8899 21.2963 26.8977 21.0979C26.9055 20.8994 26.9091 20.6893 26.9091 20.4678C26.9091 20.2464 26.8957 20.0727 26.869 19.9467C26.8427 19.8208 26.8023 19.6986 26.7491 19.5801C26.6955 19.4617 26.6171 19.3702 26.5142 19.3052C26.4112 19.2403 26.283 19.1887 26.1305 19.1505C25.7258 19.0589 25.2103 19.0093 24.584 19.0016C23.1638 18.9864 22.2512 19.0781 21.8464 19.2767C21.6861 19.3605 21.541 19.4752 21.4112 19.6202C21.2737 19.7882 21.2545 19.8799 21.3538 19.895C21.812 19.9637 22.1365 20.1279 22.3274 20.3875L22.3962 20.5251C22.4497 20.6243 22.5031 20.8 22.5566 21.052C22.61 21.3039 22.6445 21.5827 22.6597 21.888C22.6978 22.4455 22.6978 22.9228 22.6597 23.3198C22.6214 23.717 22.5853 24.0262 22.5508 24.2477C22.5164 24.4691 22.4649 24.6486 22.3962 24.786C22.3274 24.9234 22.2816 25.0074 22.2587 25.0379C22.2357 25.0684 22.2167 25.0876 22.2015 25.0952C22.1022 25.1332 21.999 25.1526 21.8922 25.1526C21.7852 25.1526 21.6554 25.0991 21.5027 24.9921C21.3501 24.8852 21.1916 24.7382 21.0274 24.5511C20.8632 24.364 20.678 24.1024 20.4718 23.7665C20.2657 23.4305 20.0518 23.0334 19.8304 22.5753L19.6471 22.243C19.5326 22.0292 19.3761 21.718 19.1776 21.3095C18.9789 20.9009 18.8033 20.5056 18.6506 20.1238C18.5896 19.9635 18.4979 19.8414 18.3758 19.7574L18.3185 19.7229C18.2803 19.6924 18.2192 19.66 18.1352 19.6255C18.0512 19.5911 17.9635 19.5664 17.8718 19.5512L14.7332 19.5739C14.4125 19.5739 14.1949 19.6466 14.0803 19.7917L14.0345 19.8604C14.0116 19.8986 14 19.9596 14 20.0437C14 20.1277 14.0229 20.2308 14.0688 20.3529C14.5269 21.4297 15.0252 22.4682 15.5635 23.4686C16.1018 24.4689 16.5696 25.2747 16.9666 25.8853C17.3637 26.4962 17.7684 27.0729 18.1808 27.6149C18.5932 28.1571 18.8662 28.5046 18.9997 28.6573C19.1334 28.8102 19.2385 28.9245 19.3148 29.0009L19.6012 29.2757C19.7845 29.459 20.0536 29.6786 20.4087 29.9343C20.7639 30.1903 21.1571 30.4422 21.5886 30.6906C22.0201 30.9386 22.5221 31.141 23.0949 31.2975C23.6676 31.4541 24.225 31.517 24.7673 31.4867H26.0846C26.3517 31.4636 26.5541 31.3796 26.6917 31.2346L26.7373 31.1772C26.7679 31.1316 26.7966 31.0608 26.8231 30.9655C26.8499 30.8701 26.8632 30.7649 26.8632 30.6505C26.8554 30.3222 26.8804 30.0263 26.9375 29.7629C26.9946 29.4996 27.0597 29.301 27.1324 29.1673C27.2052 29.0337 27.2873 28.921 27.3786 28.8296C27.4702 28.738 27.5354 28.6825 27.5737 28.6634C27.6117 28.6442 27.6421 28.6311 27.665 28.6233C27.8483 28.5623 28.0639 28.6214 28.3124 28.801C28.5606 28.9805 28.7934 29.202 29.0112 29.4654C29.2288 29.729 29.4903 30.0247 29.7957 30.353C30.1013 30.6814 30.3685 30.9255 30.5975 31.0861L30.8265 31.2236C30.9795 31.3153 31.178 31.3993 31.4224 31.4757C31.6664 31.552 31.8801 31.5711 32.0637 31.5329L34.9959 31.4872C35.2859 31.4872 35.5116 31.4392 35.6717 31.3439C35.8321 31.2484 35.9274 31.1433 35.9581 31.0289C35.9888 30.9144 35.9904 30.7845 35.9639 30.6393C35.9368 30.4944 35.91 30.3931 35.8834 30.3358Z" fill="white" fill-opacity="0.3"/>
</svg>
