<svg width="50" height="50" viewBox="0 0 50 50" fill="none" xmlns="http://www.w3.org/2000/svg">
<circle cx="25" cy="25" r="25" fill="white" fill-opacity="0.08"/>
<path fill-rule="evenodd" clip-rule="evenodd" d="M32.9779 18.4315C33.8646 18.6781 34.55 19.3767 34.7717 20.2603C35.1949 21.8836 35.1949 25.2125 35.1949 25.2125C35.1949 25.2125 35.1949 28.5618 34.7717 30.1646C34.5298 31.0688 33.8445 31.7674 32.9779 31.9934C31.4058 32.4249 25.0974 32.4249 25.0974 32.4249C25.0974 32.4249 18.7891 32.4249 17.217 31.9934C16.3302 31.7468 15.6449 31.0482 15.4232 30.1646C15 28.5618 15 25.2125 15 25.2125C15 25.2125 15 21.8631 15.4232 20.2603C15.6651 19.3562 16.3504 18.6575 17.217 18.4315C18.7891 18 25.0974 18 25.0974 18C25.0974 18 31.4058 18 32.9779 18.4315ZM23.6551 28.5783V21.8467L28.4635 25.2239L23.6551 28.5783Z" fill="white" fill-opacity="0.3"/>
</svg>
