<svg width="131" height="50" viewBox="0 0 131 50" fill="none" xmlns="http://www.w3.org/2000/svg">
<rect width="131" height="50" rx="4" fill="black"/>
<path d="M65.7153 26.168C63.4178 26.168 61.5989 27.8912 61.5989 30.2844C61.5989 32.582 63.4178 34.4008 65.7153 34.4008C68.0129 34.4008 69.8317 32.6777 69.8317 30.2844C69.736 27.8912 67.9171 26.168 65.7153 26.168ZM65.7153 32.6777C64.4708 32.6777 63.4178 31.6247 63.4178 30.1887C63.4178 28.7527 64.4708 27.6997 65.7153 27.6997C66.9598 27.6997 68.0129 28.657 68.0129 30.1887C68.0129 31.7204 66.9598 32.6777 65.7153 32.6777ZM56.8124 26.168C54.5149 26.168 52.696 27.8912 52.696 30.2844C52.696 32.582 54.5149 34.4008 56.8124 34.4008C59.11 34.4008 60.9288 32.6777 60.9288 30.2844C60.8331 27.8912 59.0142 26.168 56.8124 26.168ZM56.8124 32.6777C55.5679 32.6777 54.5149 31.6247 54.5149 30.1887C54.5149 28.7527 55.5679 27.6997 56.8124 27.6997C58.0569 27.6997 59.11 28.657 59.11 30.1887C59.11 31.7204 57.9612 32.6777 56.8124 32.6777ZM46.1864 27.4125V29.1357H50.3028C50.207 30.093 49.8241 30.8588 49.3455 31.3375C48.7711 31.9118 47.8138 32.582 46.1864 32.582C43.6016 32.582 41.687 30.5716 41.687 27.9869C41.687 25.4022 43.6974 23.3918 46.1864 23.3918C47.5266 23.3918 48.5796 23.9662 49.3455 24.6363L50.59 23.3918C49.5369 22.4345 48.1967 21.6687 46.2821 21.6687C42.8358 21.6687 39.8682 24.5406 39.8682 27.9869C39.8682 31.4332 42.8358 34.3051 46.2821 34.3051C48.1967 34.3051 49.5369 33.7307 50.6857 32.4862C51.8345 31.3375 52.2174 29.71 52.2174 28.4656C52.2174 28.0826 52.2174 27.6997 52.1216 27.4125H46.1864ZM89.5522 28.7527C89.1693 27.7954 88.212 26.168 86.1059 26.168C83.9998 26.168 82.2767 27.7954 82.2767 30.2844C82.2767 32.582 83.9998 34.4008 86.2974 34.4008C88.1162 34.4008 89.265 33.2521 89.6479 32.582L88.3077 31.6247C87.829 32.2948 87.2547 32.7734 86.2974 32.7734C85.3401 32.7734 84.7657 32.3905 84.287 31.5289L89.7436 29.2314L89.5522 28.7527ZM83.9998 30.093C83.9998 28.5613 85.2443 27.6997 86.1059 27.6997C86.776 27.6997 87.4461 28.0826 87.6376 28.5613L83.9998 30.093ZM79.5962 34.0179H81.4151V22.0516H79.5962V34.0179ZM76.6286 27.0296C76.1499 26.5509 75.3841 26.0723 74.4268 26.0723C72.4165 26.0723 70.5019 27.8912 70.5019 30.1887C70.5019 32.4862 72.3207 34.2094 74.4268 34.2094C75.3841 34.2094 76.15 33.7307 76.5329 33.2521H76.6286V33.8264C76.6286 35.3581 75.767 36.2197 74.4268 36.2197C73.3738 36.2197 72.6079 35.4539 72.4165 34.7838L70.8848 35.4539C71.3634 36.5069 72.5122 37.8471 74.5225 37.8471C76.6286 37.8471 78.3517 36.6026 78.3517 33.635V26.3595H76.6286V27.0296ZM74.6183 32.6777C73.3738 32.6777 72.3207 31.6247 72.3207 30.1887C72.3207 28.7527 73.3738 27.6997 74.6183 27.6997C75.8628 27.6997 76.8201 28.7527 76.8201 30.1887C76.7243 31.6247 75.767 32.6777 74.6183 32.6777ZM97.8807 22.0516H93.5729V34.0179H95.3917V29.5186H97.8807C99.8911 29.5186 101.806 28.0826 101.806 25.7851C101.806 23.4876 99.8911 22.0516 97.8807 22.0516ZM97.9765 27.8912H95.3917V23.7748H97.9765C99.3167 23.7748 100.083 24.9235 100.083 25.7851C100.083 26.7424 99.3167 27.8912 97.9765 27.8912ZM108.985 26.168C107.645 26.168 106.305 26.7424 105.826 27.9869L107.454 28.657C107.837 27.9869 108.411 27.7954 109.081 27.7954C110.038 27.7954 110.9 28.3698 110.996 29.3271V29.4229C110.709 29.2314 109.943 28.9442 109.177 28.9442C107.454 28.9442 105.731 29.9015 105.731 31.6247C105.731 33.2521 107.167 34.3051 108.698 34.3051C109.943 34.3051 110.517 33.7307 110.996 33.1563H111.092V34.1136H112.815V29.5186C112.623 27.3168 111.092 26.168 108.985 26.168ZM108.794 32.6777C108.22 32.6777 107.358 32.3905 107.358 31.6247C107.358 30.6673 108.411 30.3802 109.273 30.3802C110.038 30.3802 110.421 30.5716 110.9 30.7631C110.804 31.9118 109.847 32.6777 108.794 32.6777ZM118.941 26.3595L116.931 31.5289H116.835L114.729 26.3595H112.815L115.974 33.635L114.155 37.6557H115.974L120.856 26.3595H118.941ZM102.859 34.0179H104.678V22.0516H102.859V34.0179Z" fill="white"/>
<path d="M10.4787 12.5741C10.1915 12.8613 10 13.3399 10 13.9143V35.0707C10 35.6451 10.1915 36.1238 10.4787 36.4109L10.5744 36.5067L22.4449 24.6361V24.5404V24.4447L10.4787 12.5741Z" fill="url(#paint0_linear_1_779)"/>
<path d="M26.3693 28.5611L22.4443 24.6362V24.5404V24.4447L26.3693 20.5198L26.465 20.6155L31.1558 23.296C32.496 24.0618 32.496 25.3063 31.1558 26.0721L26.3693 28.5611Z" fill="url(#paint1_linear_1_779)"/>
<path d="M26.4655 28.5612L22.4448 24.5405L10.4785 36.4111C10.9572 36.8897 11.6273 36.8897 12.4889 36.5068L26.4655 28.5612Z" fill="url(#paint2_linear_1_779)"/>
<path d="M26.4655 20.424L12.3931 12.4784C11.6273 11.9997 10.8614 12.0955 10.4785 12.5741L22.4448 24.5404L26.4655 20.424Z" fill="url(#paint3_linear_1_779)"/>
<path opacity="0.2" d="M26.3717 28.4656L12.3951 36.3155C11.6293 36.7941 10.9591 36.6984 10.4805 36.3155L10.3848 36.4112L10.4805 36.5069C10.9591 36.8898 11.6293 36.9856 12.3951 36.5069L26.3717 28.4656Z" fill="black"/>
<path opacity="0.12" d="M10.4796 36.3154C10.1924 36.0283 10.001 35.5496 10.001 34.9752V35.071C10.001 35.6453 10.1924 36.124 10.4796 36.4112V36.3154Z" fill="black"/>
<path opacity="0.12" d="M31.0609 25.6893L26.2744 28.3698L26.3701 28.4655L31.0609 25.785C31.731 25.4021 32.0182 24.9235 32.0182 24.4448C32.0182 24.9235 31.731 25.4021 31.0609 25.6893Z" fill="black"/>
<path opacity="0.25" d="M12.3933 12.6699L31.0607 23.2003C31.635 23.5832 32.018 23.9661 32.018 24.4448C32.018 23.9661 31.7308 23.4875 31.0607 23.1045L12.3933 12.4785C11.053 11.7126 10 12.3828 10 13.9144V14.0102C10 12.4785 11.053 11.9041 12.3933 12.6699Z" fill="white"/>
<path d="M40.7307 18.9887H40.0605V17.0741H40.6349C41.1136 16.6912 41.4008 15.9253 41.4008 14.8723V12.0004H45.23V17.0741H45.9001V18.9887H45.1343V17.7442H40.7307V18.9887ZM42.0709 14.8723C42.0709 15.7338 41.8794 16.4997 41.4965 17.0741H44.3684V12.7662H41.9752V14.8723H42.0709Z" fill="white" stroke="white" stroke-width="0.2" stroke-miterlimit="10"/>
<path d="M51.5473 17.0737C50.973 17.6481 50.3028 17.9353 49.4413 17.9353C48.5797 17.9353 47.9096 17.6481 47.3352 17.0737C46.7608 16.4993 46.4736 15.8292 46.4736 14.9676C46.4736 14.1061 46.7608 13.436 47.3352 12.8616C47.9096 12.2872 48.5797 12 49.4413 12C50.3028 12 50.973 12.2872 51.5473 12.8616C52.1217 13.436 52.4089 14.1061 52.4089 14.9676C52.4089 15.7335 52.1217 16.4993 51.5473 17.0737ZM47.9096 16.5951C48.2925 16.978 48.8669 17.2652 49.4413 17.2652C50.0157 17.2652 50.59 17.0737 50.973 16.5951C51.3559 16.2121 51.6431 15.6378 51.6431 14.9676C51.6431 14.2975 51.4516 13.7231 50.973 13.3402C50.59 12.9573 50.0157 12.6701 49.4413 12.6701C48.8669 12.6701 48.2925 12.8616 47.9096 13.3402C47.5267 13.7231 47.2395 14.2975 47.2395 14.9676C47.2395 15.6378 47.5267 16.1164 47.9096 16.5951Z" fill="white" stroke="white" stroke-width="0.2" stroke-miterlimit="10"/>
<path d="M56.1424 17.9353C55.2809 17.9353 54.6108 17.6481 54.0364 17.0737C53.462 16.4993 53.1748 15.8292 53.1748 14.9676C53.1748 14.1061 53.462 13.436 54.0364 12.8616C54.6108 12.2872 55.2809 12 56.1424 12C57.004 12 57.6741 12.2872 58.2485 12.9573L57.7699 13.436C57.3869 12.9573 56.8126 12.6701 56.1424 12.6701C55.4723 12.6701 54.9937 12.8616 54.515 13.3402C54.0364 13.7231 53.8449 14.2975 53.8449 14.9676C53.8449 15.6378 54.0364 16.2121 54.515 16.5951C54.8979 16.978 55.4723 17.2652 56.1424 17.2652C56.8126 17.2652 57.3869 16.978 57.8656 16.4036L58.3442 16.8822C58.057 17.1694 57.7699 17.4566 57.3869 17.6481C57.004 17.8395 56.6211 17.9353 56.1424 17.9353Z" fill="white" stroke="white" stroke-width="0.2" stroke-miterlimit="10"/>
<path d="M61.4079 17.7438H60.6421V12.7658H59.0146V12H62.9396V12.6701H61.4079V17.7438Z" fill="white" stroke="white" stroke-width="0.2" stroke-miterlimit="10"/>
<path d="M68.1097 12L65.9079 16.8822C65.6207 17.5524 65.1421 17.9353 64.5677 17.9353C64.3762 17.9353 64.1848 17.9353 63.9933 17.8395L64.1848 17.1694C64.2805 17.2652 64.4719 17.2652 64.5677 17.2652C64.7591 17.2652 64.8549 17.2652 64.9506 17.1694C65.0463 17.0737 65.1421 16.978 65.2378 16.7865L65.4293 16.3079L63.5146 12.0957H64.3762L65.8122 15.3506L67.1524 12.0957H68.1097V12Z" fill="white" stroke="white" stroke-width="0.2" stroke-miterlimit="10"/>
<path d="M68.9707 17.7438V12H73.0871V17.7438H72.3213V12.7658H69.6408V17.8395H68.9707V17.7438Z" fill="white" stroke="white" stroke-width="0.2" stroke-miterlimit="10"/>
<path d="M74.4277 17.7438V12H75.1936V14.489H78.0655V12H78.8313V17.7438H78.0655V15.1591H75.1936V17.7438H74.4277Z" fill="white" stroke="white" stroke-width="0.2" stroke-miterlimit="10"/>
<path d="M84.7671 17.0737C84.1927 17.6481 83.5226 17.9353 82.661 17.9353C81.7994 17.9353 81.1293 17.6481 80.5549 17.0737C79.9806 16.4993 79.6934 15.8292 79.6934 14.9676C79.6934 14.1061 79.9806 13.436 80.5549 12.8616C81.1293 12.2872 81.7994 12 82.661 12C83.5226 12 84.1927 12.2872 84.7671 12.8616C85.3415 13.436 85.6286 14.1061 85.6286 14.9676C85.6286 15.7335 85.3415 16.4993 84.7671 17.0737ZM81.1293 16.5951C81.5122 16.978 82.0866 17.2652 82.661 17.2652C83.2354 17.2652 83.8098 17.0737 84.1927 16.5951C84.5756 16.2121 84.8628 15.6378 84.8628 14.9676C84.8628 14.2975 84.6713 13.7231 84.1927 13.3402C83.8098 12.9573 83.2354 12.6701 82.661 12.6701C82.0866 12.6701 81.5122 12.8616 81.1293 13.2445C80.7464 13.6274 80.4592 14.2018 80.4592 14.8719C80.4592 15.542 80.6507 16.1164 81.1293 16.5951Z" fill="white" stroke="white" stroke-width="0.2" stroke-miterlimit="10"/>
<path d="M88.5947 17.7438V12H90.7008C91.1794 12 91.5624 12.1915 91.8496 12.4787C92.1367 12.7658 92.3282 13.1488 92.3282 13.6274C92.3282 13.9146 92.2325 14.1061 92.1367 14.3933C92.041 14.5847 91.8496 14.7762 91.5624 14.8719C91.8496 14.9676 92.041 15.1591 92.2325 15.3506C92.4239 15.542 92.5197 15.8292 92.5197 16.2121C92.5197 16.6908 92.3282 17.0737 92.041 17.3609C91.6581 17.6481 91.2752 17.8395 90.7965 17.8395H88.5947V17.7438ZM89.3606 14.489H90.7008C90.988 14.489 91.1794 14.3933 91.3709 14.2018C91.5624 14.0103 91.6581 13.8189 91.6581 13.6274C91.6581 13.436 91.5624 13.2445 91.3709 13.053C91.1794 12.8616 90.988 12.7658 90.7008 12.7658H89.3606V14.489ZM89.3606 17.0737H90.8923C91.1794 17.0737 91.3709 16.978 91.5624 16.7865C91.7538 16.5951 91.8496 16.4036 91.8496 16.1164C91.8496 15.9249 91.7538 15.6378 91.5624 15.4463C91.3709 15.2548 91.1794 15.1591 90.8923 15.1591H89.4563V17.0737H89.3606Z" fill="white" stroke="white" stroke-width="0.2" stroke-miterlimit="10"/>
<defs>
<linearGradient id="paint0_linear_1_779" x1="21.3279" y1="13.6684" x2="5.26202" y2="29.7342" gradientUnits="userSpaceOnUse">
<stop stop-color="#00A0FF"/>
<stop offset="0.00657445" stop-color="#00A1FF"/>
<stop offset="0.2601" stop-color="#00BEFF"/>
<stop offset="0.5122" stop-color="#00D2FF"/>
<stop offset="0.7604" stop-color="#00DFFF"/>
<stop offset="1" stop-color="#00E3FF"/>
</linearGradient>
<linearGradient id="paint1_linear_1_779" x1="32.848" y1="24.478" x2="9.68426" y2="24.478" gradientUnits="userSpaceOnUse">
<stop stop-color="#FFE000"/>
<stop offset="0.4087" stop-color="#FFBD00"/>
<stop offset="0.7754" stop-color="#FFA500"/>
<stop offset="1" stop-color="#FF9C00"/>
</linearGradient>
<linearGradient id="paint2_linear_1_779" x1="24.2257" y1="26.6748" x2="2.43909" y2="48.4613" gradientUnits="userSpaceOnUse">
<stop stop-color="#FF3A44"/>
<stop offset="1" stop-color="#C31162"/>
</linearGradient>
<linearGradient id="paint3_linear_1_779" x1="7.44453" y1="5.49917" x2="17.1731" y2="15.2279" gradientUnits="userSpaceOnUse">
<stop stop-color="#32A071"/>
<stop offset="0.0685" stop-color="#2DA771"/>
<stop offset="0.4762" stop-color="#15CF74"/>
<stop offset="0.8009" stop-color="#06E775"/>
<stop offset="1" stop-color="#00F076"/>
</linearGradient>
</defs>
</svg>
