<svg width="15" height="15" viewBox="0 0 15 15" fill="none" xmlns="http://www.w3.org/2000/svg">
<path fill-rule="evenodd" clip-rule="evenodd" d="M7.5 15C11.6421 15 15 11.6421 15 7.5C15 3.35786 11.6421 0 7.5 0C3.35786 0 0 3.35786 0 7.5C0 11.6421 3.35786 15 7.5 15ZM5.8346 5.7508C6.87345 5.7508 7.71559 4.90865 7.71559 3.86981C7.71559 2.83096 6.87345 1.98882 5.8346 1.98882C4.79576 1.98882 3.95361 2.83096 3.95361 3.86981C3.95361 4.90865 4.79576 5.7508 5.8346 5.7508ZM12.9871 5.83466C12.9871 6.87351 12.1449 7.71566 11.1061 7.71566C10.0672 7.71566 9.2251 6.87351 9.2251 5.83466C9.2251 4.79582 10.0672 3.95367 11.1061 3.95367C12.1449 3.95367 12.9871 4.79582 12.9871 5.83466ZM3.91761 11.0463C4.95645 11.0463 5.7986 10.2042 5.7986 9.16534C5.7986 8.1265 4.95645 7.28435 3.91761 7.28435C2.87877 7.28435 2.03662 8.1265 2.03662 9.16534C2.03662 10.2042 2.87877 11.0463 3.91761 11.0463ZM11.0701 11.1302C11.0701 12.169 10.2279 13.0112 9.1891 13.0112C8.15025 13.0112 7.30811 12.169 7.30811 11.1302C7.30811 10.0914 8.15025 9.24921 9.1891 9.24921C10.2279 9.24921 11.0701 10.0914 11.0701 11.1302ZM7.51192 8.43451C8.03465 8.43451 8.4584 8.01075 8.4584 7.48802C8.4584 6.96529 8.03465 6.54153 7.51192 6.54153C6.98919 6.54153 6.56543 6.96529 6.56543 7.48802C6.56543 8.01075 6.98919 8.43451 7.51192 8.43451Z" fill="#FF6600"/>
</svg>
