<svg width="50" height="50" viewBox="0 0 50 50" fill="none" xmlns="http://www.w3.org/2000/svg">
<circle cx="25" cy="25" r="25" fill="white" fill-opacity="0.08"/>
<path d="M35 19.8931C34.2639 20.2143 33.4741 20.4322 32.6442 20.5294C33.4915 20.0297 34.1402 19.237 34.4476 18.2954C33.6527 18.7582 32.7754 19.0942 31.8406 19.2764C31.092 18.4899 30.0271 18 28.8461 18C26.5803 18 24.7431 19.8094 24.7431 22.0397C24.7431 22.356 24.7794 22.665 24.8494 22.9604C21.44 22.7917 18.4168 21.183 16.3935 18.7385C16.0398 19.3342 15.8386 20.0284 15.8386 20.7694C15.8386 22.1714 16.5634 23.4084 17.6632 24.1321C16.9909 24.11 16.3585 23.9278 15.8048 23.625V23.6755C15.8048 25.6326 17.2196 27.2659 19.0955 27.6376C18.7518 27.7287 18.3894 27.7792 18.0144 27.7792C17.7495 27.7792 17.4933 27.7534 17.2421 27.7041C17.7644 29.3104 19.2792 30.4785 21.0739 30.5105C19.6704 31.5937 17.9007 32.2374 15.9786 32.2374C15.6474 32.2374 15.3212 32.2177 15 32.182C16.8159 33.3304 18.9718 34 21.2888 34C28.8362 34 32.9617 27.8432 32.9617 22.5037L32.9479 21.9806C33.754 21.4144 34.4513 20.703 35 19.8931Z" fill="white" fill-opacity="0.3"/>
</svg>
